<svg width="50" height="51" viewBox="0 0 50 51" fill="none" xmlns="http://www.w3.org/2000/svg">
<path d="M27.9837 6.69702C27.9837 8.41671 26.5896 9.8108 24.8699 9.8108C23.1502 9.8108 21.7562 8.41671 21.7562 6.69702C21.7562 4.97734 23.1502 3.58325 24.8699 3.58325C26.5896 3.58325 27.9837 4.97734 27.9837 6.69702Z" fill="#1045BD"/>
<path d="M13.9386 11.0549C13.9611 12.2179 13.9729 12.3076 14.1556 12.6973C14.4288 13.28 15.0396 13.8966 15.5879 14.143C15.9313 14.2973 16.2391 14.3637 16.9556 14.4381C17.9654 14.5429 18.2567 14.6037 18.8486 14.8328C20.1582 15.3397 21.2683 16.354 21.9431 17.6602C22.3956 18.5361 22.5558 19.161 22.6293 20.3361C22.6852 21.2305 22.7126 21.3705 22.9103 21.772C23.6002 23.1729 25.5713 23.4736 26.6186 22.3377C27.1086 21.8063 27.2096 21.5248 27.271 20.5187C27.3402 19.3834 27.4394 18.8403 27.7017 18.1596C27.9811 17.4347 28.4213 16.7664 29.017 16.163C30.1204 15.0451 31.2523 14.5634 33.1531 14.4028C34.1117 14.3218 34.6118 14.1134 35.1587 13.5671C35.8509 12.8756 36.0397 12.2776 36.0397 10.777V9.8108L33.8819 9.8421C32.0297 9.86906 31.6281 9.89473 31.0464 10.0233C28.9256 10.4921 27.3021 11.366 25.7788 12.859L24.9694 13.6523L24.2095 12.8966C22.877 11.5715 21.3283 10.6692 19.562 10.1889C18.4331 9.88197 17.8475 9.8247 15.8374 9.8247H13.915L13.9386 11.0549Z" fill="#1045BD"/>
<path d="M9.5955 16.3321C9.63374 18.768 9.66491 19.0111 10.1122 20.3579C10.6309 21.9195 11.4679 23.2727 12.6402 24.4446L13.3928 25.197L12.6789 25.9152C11.2029 27.4 10.3073 29.0109 9.80936 31.0762C9.64137 31.7729 9.62646 31.9801 9.59465 34.0536L9.56055 36.2821L10.6201 36.2817C12.1435 36.2811 12.6947 36.091 13.4198 35.3161C13.9737 34.7242 14.1302 34.3058 14.2183 33.1812C14.2551 32.7099 14.3524 32.0996 14.4342 31.825C14.8393 30.4666 15.6976 29.332 16.9162 28.5438C17.9404 27.8815 18.7679 27.6267 20.2396 27.5205C21.3262 27.4421 21.5745 27.3538 22.0964 26.8604C22.6133 26.3717 22.7999 25.9299 22.8008 25.1928C22.8017 24.4989 22.6478 24.111 22.168 23.5983C21.668 23.0639 21.302 22.9359 20.0808 22.8684C18.4724 22.7794 17.4224 22.4033 16.3428 21.5297C15.0338 20.4703 14.2198 18.8045 14.2124 17.17C14.2059 15.7118 13.3379 14.571 11.9626 14.2129C11.6829 14.14 11.212 14.1035 10.5516 14.1035H9.56055L9.5955 16.3321Z" fill="#1045BD"/>
<path d="M37.7038 14.3128C36.9995 14.5662 36.3942 15.0899 36.0811 15.7167C35.8653 16.1488 35.7854 16.5176 35.6887 17.5266C35.5501 18.9727 34.9646 20.1816 33.9253 21.1679C33.4197 21.6477 33.0303 21.9177 32.3533 22.2579C31.5972 22.6379 30.9324 22.7988 29.8252 22.8695C28.6836 22.9425 28.3352 23.0638 27.8226 23.5672C26.5907 24.7769 27.0914 26.8907 28.7281 27.3914C28.9243 27.4513 29.47 27.5174 29.9408 27.5383C30.8515 27.5786 31.5901 27.7368 32.2693 28.0372C33.6414 28.6438 34.791 29.8421 35.3224 31.2196C35.5915 31.9174 35.6661 32.286 35.7531 33.3482C35.8341 34.3367 36.0568 34.8827 36.5867 35.3928C37.3401 36.1177 37.9066 36.2957 39.3664 36.2664L40.3553 36.2465L40.3489 34.2853C40.3439 32.7539 40.3149 32.168 40.2169 31.6111C39.8173 29.3404 38.6933 27.2549 37.0301 25.6981L36.5033 25.205L37.2916 24.4144C38.7669 22.9348 39.7177 21.18 40.1453 19.1474C40.3143 18.3447 40.4062 16.6685 40.3526 15.3694L40.3033 14.1748L39.1879 14.1774C38.2846 14.1795 38.0025 14.2052 37.7038 14.3128Z" fill="#1045BD"/>
<path d="M24.076 27.5184C23.595 27.7032 23.0977 28.1896 22.8604 28.7072C22.6996 29.0578 22.6659 29.2554 22.6205 30.1135C22.5566 31.3191 22.4368 31.8374 22.0269 32.6808C21.464 33.839 20.5443 34.7574 19.3836 35.3204C18.5718 35.7141 18.0247 35.8527 16.994 35.926C15.7569 36.0138 15.0226 36.3604 14.4631 37.1205C13.9787 37.7787 13.8996 38.0985 13.8951 39.4199L13.8911 40.5966L15.9597 40.5928C18.2803 40.5886 18.789 40.5274 20.1138 40.0936C21.6446 39.5922 23.0421 38.7204 24.2505 37.513L24.9813 36.7828L25.5708 37.3998C27.2227 39.129 29.5032 40.2671 31.9006 40.5587C32.233 40.5992 33.3003 40.6323 34.2724 40.6323H36.0397V39.5042C36.0397 38.1933 35.9674 37.8656 35.5361 37.2198C34.962 36.3603 34.2564 36.0145 32.8901 35.9228C30.913 35.7903 29.377 34.8874 28.3019 33.2258C27.6801 32.2649 27.3792 31.2859 27.3017 29.9709C27.2762 29.5394 27.2073 29.0349 27.1486 28.8498C26.9981 28.3756 26.4783 27.8221 25.9478 27.5712C25.4061 27.315 24.66 27.2939 24.076 27.5184Z" fill="#1045BD"/>
<path d="M43.5526 28.234C45.2723 28.234 46.6663 26.8399 46.6663 25.1202C46.6663 23.4005 45.2723 22.0064 43.5526 22.0064C41.8329 22.0064 40.4388 23.4005 40.4388 25.1202C40.4388 26.8399 41.8329 28.234 43.5526 28.234Z" fill="#1045BD"/>
<path d="M9.56055 25.1202C9.56055 26.8399 8.16647 28.234 6.44678 28.234C4.72709 28.234 3.33301 26.8399 3.33301 25.1202C3.33301 23.4005 4.72709 22.0064 6.44678 22.0064C8.16647 22.0064 9.56055 23.4005 9.56055 25.1202Z" fill="#1045BD"/>
<path d="M24.8699 46.9166C26.5896 46.9166 27.9837 45.5225 27.9837 43.8028C27.9837 42.0831 26.5896 40.689 24.8699 40.689C23.1502 40.689 21.7562 42.0831 21.7562 43.8028C21.7562 45.5225 23.1502 46.9166 24.8699 46.9166Z" fill="#1045BD"/>
</svg>
